HIERARCHY
ROOT Hips
{
	OFFSET 0.000000 0.000000 0.000000
	CHANNELS 6 Xposition Yposition Zposition Zrotation Xrotation Yrotation
	JOINT Spine
	{
		OFFSET 0.000000 0.059888 0.006665
		CHANNELS 6 Xposition Yposition Zposition Zrotation Xrotation Yrotation
		JOINT Chest
		{
			OFFSET 0.000000 0.125681 -0.015911
			CHANNELS 6 Xposition Yposition Zposition Zrotation Xrotation Yrotation
			JOINT UpperChest
			{
				OFFSET 0.000000 0.122768 -0.001652
				CHANNELS 6 Xposition Yposition Zposition Zrotation Xrotation Yrotation
				JOINT Neck
				{
					OFFSET 0.000000 0.155865 0.008735
					CHANNELS 6 Xposition Yposition Zposition Zrotation Xrotation Yrotation
					JOINT Head
					{
						OFFSET 0.000000 0.095969 -0.000410
						CHANNELS 6 Xposition Yposition Zposition Zrotation Xrotation Yrotation
						JOINT LeftEye
						{
							OFFSET 0.015267 0.059218 0.021494
							CHANNELS 6 Xposition Yposition Zposition Zrotation Xrotation Yrotation
							End Site
							{
								OFFSET 0.015267 0.059218 0.021494
							}
						}
						JOINT RightEye
						{
							OFFSET -0.015267 0.059218 0.021494
							CHANNELS 6 Xposition Yposition Zposition Zrotation Xrotation Yrotation
							End Site
							{
								OFFSET -0.015267 0.059218 0.021494
							}
						}
					}
				}
				JOINT LeftShoulder
				{
					OFFSET 0.025383 0.124268 0.007699
					CHANNELS 6 Xposition Yposition Zposition Zrotation Xrotation Yrotation
					JOINT LeftUpperArm
					{
						OFFSET 0.136062 0.000000 0.000000
						CHANNELS 6 Xposition Yposition Zposition Zrotation Xrotation Yrotation
						JOINT LeftLowerArm
						{
							OFFSET 0.225446 0.000000 0.000000
							CHANNELS 6 Xposition Yposition Zposition Zrotation Xrotation Yrotation
							JOINT LeftHand
							{
								OFFSET 0.256325 0.000003 0.000015
								CHANNELS 6 Xposition Yposition Zposition Zrotation Xrotation Yrotation
								JOINT LeftIndexProximal
								{
									OFFSET 0.074229 0.008101 0.022282
									CHANNELS 6 Xposition Yposition Zposition Zrotation Xrotation Yrotation
									JOINT LeftIndexIntermediate
									{
										OFFSET 0.037712 0.000000 -0.000001
										CHANNELS 6 Xposition Yposition Zposition Zrotation Xrotation Yrotation
										JOINT LeftIndexDistal
										{
											OFFSET 0.023218 0.000022 0.000021
											CHANNELS 6 Xposition Yposition Zposition Zrotation Xrotation Yrotation
											End Site
											{
												OFFSET 0.023218 0.000022 0.000021
											}
										}
									}
								}
								JOINT LeftLittleProximal
								{
									OFFSET 0.069261 0.008101 -0.033073
									CHANNELS 6 Xposition Yposition Zposition Zrotation Xrotation Yrotation
									JOINT LeftLittleIntermediate
									{
										OFFSET 0.035643 0.000000 0.000000
										CHANNELS 6 Xposition Yposition Zposition Zrotation Xrotation Yrotation
										JOINT LeftLittleDistal
										{
											OFFSET 0.020542 0.000000 0.000000
											CHANNELS 6 Xposition Yposition Zposition Zrotation Xrotation Yrotation
											End Site
											{
												OFFSET 0.020542 0.000000 0.000000
											}
										}
									}
								}
								JOINT LeftMiddleProximal
								{
									OFFSET 0.075240 0.008101 0.002320
									CHANNELS 6 Xposition Yposition Zposition Zrotation Xrotation Yrotation
									JOINT LeftMiddleIntermediate
									{
										OFFSET 0.042007 0.000000 0.000000
										CHANNELS 6 Xposition Yposition Zposition Zrotation Xrotation Yrotation
										JOINT LeftMiddleDistal
										{
											OFFSET 0.025915 0.000000 0.000000
											CHANNELS 6 Xposition Yposition Zposition Zrotation Xrotation Yrotation
											End Site
											{
												OFFSET 0.025915 0.000000 0.000000
											}
										}
									}
								}
								JOINT LeftRingProximal
								{
									OFFSET 0.074383 0.008101 -0.015403
									CHANNELS 6 Xposition Yposition Zposition Zrotation Xrotation Yrotation
									JOINT LeftRingIntermediate
									{
										OFFSET 0.038967 0.000000 0.000000
										CHANNELS 6 Xposition Yposition Zposition Zrotation Xrotation Yrotation
										JOINT LeftRingDistal
										{
											OFFSET 0.022488 0.000000 0.000000
											CHANNELS 6 Xposition Yposition Zposition Zrotation Xrotation Yrotation
											End Site
											{
												OFFSET 0.022488 0.000000 0.000000
											}
										}
									}
								}
								JOINT LeftThumbProximal
								{
									OFFSET 0.003995 -0.010985 0.018096
									CHANNELS 6 Xposition Yposition Zposition Zrotation Xrotation Yrotation
									JOINT LeftThumbIntermediate
									{
										OFFSET 0.052819 -0.000008 -0.000074
										CHANNELS 6 Xposition Yposition Zposition Zrotation Xrotation Yrotation
										JOINT LeftThumbDistal
										{
											OFFSET 0.032489 0.000042 -0.000035
											CHANNELS 6 Xposition Yposition Zposition Zrotation Xrotation Yrotation
											End Site
											{
												OFFSET 0.032489 0.000042 -0.000035
											}
										}
									}
								}
							}
						}
					}
				}
				JOINT RightShoulder
				{
					OFFSET -0.025383 0.124268 0.007699
					CHANNELS 6 Xposition Yposition Zposition Zrotation Xrotation Yrotation
					JOINT RightUpperArm
					{
						OFFSET -0.136062 0.000000 0.000000
						CHANNELS 6 Xposition Yposition Zposition Zrotation Xrotation Yrotation
						JOINT RightLowerArm
						{
							OFFSET -0.225446 0.000000 0.000000
							CHANNELS 6 Xposition Yposition Zposition Zrotation Xrotation Yrotation
							JOINT RightHand
							{
								OFFSET -0.256325 0.000003 0.000015
								CHANNELS 6 Xposition Yposition Zposition Zrotation Xrotation Yrotation
								JOINT RightIndexProximal
								{
									OFFSET -0.074229 0.008101 0.022282
									CHANNELS 6 Xposition Yposition Zposition Zrotation Xrotation Yrotation
									JOINT RightIndexIntermediate
									{
										OFFSET -0.037712 0.000000 -0.000001
										CHANNELS 6 Xposition Yposition Zposition Zrotation Xrotation Yrotation
										JOINT RightIndexDistal
										{
											OFFSET -0.023218 0.000022 0.000021
											CHANNELS 6 Xposition Yposition Zposition Zrotation Xrotation Yrotation
											End Site
											{
												OFFSET -0.023218 0.000022 0.000021
											}
										}
									}
								}
								JOINT RightLittleProximal
								{
									OFFSET -0.069261 0.008101 -0.033073
									CHANNELS 6 Xposition Yposition Zposition Zrotation Xrotation Yrotation
									JOINT RightLittleIntermediate
									{
										OFFSET -0.035643 0.000000 0.000000
										CHANNELS 6 Xposition Yposition Zposition Zrotation Xrotation Yrotation
										JOINT RightLittleDistal
										{
											OFFSET -0.020542 0.000000 0.000000
											CHANNELS 6 Xposition Yposition Zposition Zrotation Xrotation Yrotation
											End Site
											{
												OFFSET -0.020542 0.000000 0.000000
											}
										}
									}
								}
								JOINT RightMiddleProximal
								{
									OFFSET -0.075240 0.008101 0.002320
									CHANNELS 6 Xposition Yposition Zposition Zrotation Xrotation Yrotation
									JOINT RightMiddleIntermediate
									{
										OFFSET -0.042007 0.000000 0.000000
										CHANNELS 6 Xposition Yposition Zposition Zrotation Xrotation Yrotation
										JOINT RightMiddleDistal
										{
											OFFSET -0.025915 0.000000 0.000000
											CHANNELS 6 Xposition Yposition Zposition Zrotation Xrotation Yrotation
											End Site
											{
												OFFSET -0.025915 0.000000 0.000000
											}
										}
									}
								}
								JOINT RightRingProximal
								{
									OFFSET -0.074383 0.008101 -0.015403
									CHANNELS 6 Xposition Yposition Zposition Zrotation Xrotation Yrotation
									JOINT RightRingIntermediate
									{
										OFFSET -0.038967 0.000000 0.000000
										CHANNELS 6 Xposition Yposition Zposition Zrotation Xrotation Yrotation
										JOINT RightRingDistal
										{
											OFFSET -0.022488 0.000000 0.000000
											CHANNELS 6 Xposition Yposition Zposition Zrotation Xrotation Yrotation
											End Site
											{
												OFFSET -0.022488 0.000000 0.000000
											}
										}
									}
								}
								JOINT RightThumbProximal
								{
									OFFSET -0.003995 -0.010985 0.018096
									CHANNELS 6 Xposition Yposition Zposition Zrotation Xrotation Yrotation
									JOINT RightThumbIntermediate
									{
										OFFSET -0.052819 -0.000008 -0.000074
										CHANNELS 6 Xposition Yposition Zposition Zrotation Xrotation Yrotation
										JOINT RightThumbDistal
										{
											OFFSET -0.032489 0.000042 -0.000035
											CHANNELS 6 Xposition Yposition Zposition Zrotation Xrotation Yrotation
											End Site
											{
												OFFSET -0.032489 0.000042 -0.000035
											}
										}
									}
								}
							}
						}
					}
				}
			}
		}
	}
	JOINT LeftUpperLeg
	{
		OFFSET 0.087143 -0.045243 0.001548
		CHANNELS 6 Xposition Yposition Zposition Zrotation Xrotation Yrotation
		JOINT LeftLowerLeg
		{
			OFFSET 0.000000 -0.394432 -0.000001
			CHANNELS 6 Xposition Yposition Zposition Zrotation Xrotation Yrotation
			JOINT LeftFoot
			{
				OFFSET 0.000000 -0.466446 0.003058
				CHANNELS 6 Xposition Yposition Zposition Zrotation Xrotation Yrotation
				JOINT LeftToes
				{
					OFFSET 0.000000 -0.079218 0.140851
					CHANNELS 6 Xposition Yposition Zposition Zrotation Xrotation Yrotation
					End Site
					{
						OFFSET 0.000000 -0.079218 0.140851
					}
				}
			}
		}
	}
	JOINT RightUpperLeg
	{
		OFFSET -0.087143 -0.045243 0.001548
		CHANNELS 6 Xposition Yposition Zposition Zrotation Xrotation Yrotation
		JOINT RightLowerLeg
		{
			OFFSET 0.000000 -0.394432 -0.000001
			CHANNELS 6 Xposition Yposition Zposition Zrotation Xrotation Yrotation
			JOINT RightFoot
			{
				OFFSET 0.000000 -0.466446 0.003058
				CHANNELS 6 Xposition Yposition Zposition Zrotation Xrotation Yrotation
				JOINT RightToes
				{
					OFFSET 0.000000 -0.079218 0.140851
					CHANNELS 6 Xposition Yposition Zposition Zrotation Xrotation Yrotation
					End Site
					{
						OFFSET 0.000000 -0.079218 0.140851
					}
				}
			}
		}
	}
}
MOTION
Frames: 4
Frame Time: 0.041667
-0.007379 1.054417 -0.016674 -2.938957 7.810138 15.400929 -0.000000 0.059888 0.006665 -0.569244 7.715162 2.521417 0.000000 0.125681 -0.015911 -0.124755 0.739291 -0.293207 -0.000000 0.122768 -0.001652 -0.000048 -12.397789 -0.000110 -0.000000 0.155865 0.008735 -1.167602 18.810573 0.330026 0.000000 0.095969 -0.000410 0.956888 5.774368 -0.550615 0.015267 0.059218 0.021494 -1.701129 3.586997 21.747935 -0.015267 0.059218 0.021494 1.701130 3.587005 -21.747922 0.025383 0.124268 0.007699 18.201672 -2.653719 16.595311 0.136062 -0.000000 -0.000000 -0.402147 1.084189 -32.742380 0.225446 0.000000 0.000000 -5.989560 -27.475641 -16.343948 0.256325 0.000003 0.000015 1.642180 42.547834 3.608702 0.074229 0.008101 0.022282 -0.012967 0.667618 1.112106 0.037712 -0.000000 -0.000001 -1.679192 1.282861 0.674522 0.023218 0.000022 0.000021 -0.334986 1.286452 -0.710998 0.069261 0.008101 -0.033073 0.000006 -0.000043 0.000000 0.035643 -0.000000 -0.000000 0.000003 -0.000000 0.000001 0.020542 -0.000000 0.000000 0.890204 -0.008562 -1.101173 0.075240 0.008101 0.002320 0.000002 -0.000009 -0.000005 0.042007 -0.000000 -0.000000 0.000004 0.000038 -0.000012 0.025915 -0.000000 -0.000000 0.000001 0.000040 -0.000012 0.074383 0.008101 -0.015403 0.000001 0.000013 0.000004 0.038967 0.000000 0.000000 0.000005 -0.000000 0.000000 0.022488 -0.000000 -0.000000 -0.712573 -0.008161 1.310731 0.003995 -0.010985 0.018096 86.199501 49.487517 -89.646574 0.052819 -0.000008 -0.000074 -2.573033 -0.739914 0.463019 0.032489 0.000042 -0.000035 4.590286 -0.705067 -0.717112 -0.025383 0.124268 0.007699 10.530962 -2.624490 -16.701718 -0.136062 0.000000 0.000000 -9.360609 10.354239 17.556557 -0.225446 0.000000 0.000000 184.650858 -116.019314 191.421119 -0.256325 0.000003 0.000015 10.563985 56.940545 -21.474772 -0.074229 0.008101 0.022282 0.012969 0.667619 -1.112106 -0.037712 0.000000 -0.000001 1.679194 1.282860 -0.674520 -0.023218 0.000022 0.000021 0.334983 1.286454 0.710997 -0.069261 0.008101 -0.033073 -0.000005 -0.000044 -0.000000 -0.035643 0.000000 -0.000000 -0.000003 -0.000001 -0.000000 -0.020542 -0.000000 -0.000000 -0.890204 -0.008561 1.101172 -0.075240 0.008101 0.002320 0.000001 -0.000008 0.000006 -0.042007 -0.000000 0.000000 -0.000003 0.000040 0.000013 -0.025915 -0.000000 -0.000000 -0.000003 0.000039 0.000012 -0.074383 0.008101 -0.015403 0.000001 0.000014 -0.000005 -0.038967 -0.000000 -0.000000 -0.000003 -0.000000 -0.000001 -0.022488 -0.000000 -0.000000 0.712572 -0.008158 -1.310732 -0.003995 -0.010985 0.018096 -86.199433 49.487521 89.646581 -0.052819 -0.000008 -0.000074 2.573041 -0.739911 -0.463022 -0.032489 0.000042 -0.000035 -4.590288 -0.705065 0.717110 0.087143 -0.045243 0.001548 -2.691188 -9.193920 -0.430317 -0.000000 -0.394432 -0.000001 2.918582 20.344174 -1.432571 0.000000 -0.466446 0.003058 1.362836 -7.472813 10.899118 0.000000 -0.079218 0.140851 -0.000002 0.248285 0.000002 -0.087143 -0.045243 0.001548 -8.696389 -12.296402 -1.865719 -0.000000 -0.394432 -0.000001 8.824543 24.200952 -18.992417 0.000000 -0.466446 0.003058 2.947616 -7.515700 22.503575 -0.000000 -0.079218 0.140851 0.000001 0.248285 -0.000000 
-0.008534 1.054028 -0.017622 -2.415460 7.750777 15.605609 0.000000 0.059888 0.006665 -0.912936 7.725013 1.935949 -0.000000 0.125681 -0.015911 -0.565074 0.759706 -0.359803 -0.000000 0.122768 -0.001652 -0.000047 -12.397780 -0.000111 0.000000 0.155865 0.008735 -1.004986 18.515584 0.319599 -0.000000 0.095969 -0.000410 0.617433 5.783684 -0.239525 0.015267 0.059218 0.021494 -1.701130 3.586995 21.747934 -0.015267 0.059218 0.021494 1.701130 3.587001 -21.747922 0.025383 0.124268 0.007699 18.420079 -2.578476 16.107309 0.136062 0.000000 0.000000 0.308961 0.290983 -32.595155 0.225446 0.000000 0.000000 -6.073721 -23.396876 -15.691858 0.256325 0.000003 0.000015 0.025019 41.568197 3.745502 0.074229 0.008101 0.022282 -0.012967 0.667619 1.112105 0.037712 -0.000000 -0.000001 -1.679195 1.282863 0.674523 0.023218 0.000022 0.000021 -0.334981 1.286457 -0.711000 0.069261 0.008101 -0.033073 0.000006 -0.000043 0.000001 0.035643 0.000000 0.000000 0.000003 -0.000002 0.000001 0.020542 0.000000 -0.000000 0.890204 -0.008561 -1.101173 0.075240 0.008101 0.002320 0.000000 -0.000009 -0.000006 0.042007 0.000000 -0.000000 0.000001 0.000037 -0.000012 0.025915 0.000000 0.000000 0.000003 0.000036 -0.000012 0.074383 0.008101 -0.015403 0.000002 0.000014 0.000004 0.038967 -0.000000 -0.000000 0.000004 -0.000002 0.000001 0.022488 0.000000 0.000000 -0.712573 -0.008158 1.310729 0.003995 -0.010985 0.018096 86.199487 49.487521 -89.646574 0.052819 -0.000008 -0.000074 -2.573035 -0.739914 0.463021 0.032489 0.000042 -0.000035 4.590284 -0.705069 -0.717111 -0.025383 0.124268 0.007699 11.021859 -2.545871 -16.259381 -0.136062 -0.000000 -0.000000 -9.991587 10.130336 17.398418 -0.225446 -0.000000 0.000000 185.330326 -115.890033 191.513190 -0.256325 0.000003 0.000015 12.070339 56.573217 -21.960776 -0.074229 0.008101 0.022282 0.012968 0.667620 -1.112105 -0.037712 0.000000 -0.000001 1.679196 1.282863 -0.674521 -0.023218 0.000022 0.000021 0.334983 1.286453 0.710998 -0.069261 0.008101 -0.033073 -0.000006 -0.000042 0.000000 -0.035643 0.000000 -0.000000 -0.000003 -0.000001 0.000000 -0.020542 -0.000000 -0.000000 -0.890204 -0.008562 1.101171 -0.075240 0.008101 0.002320 -0.000000 -0.000006 0.000006 -0.042007 0.000000 0.000000 -0.000003 0.000039 0.000014 -0.025915 0.000000 -0.000000 -0.000003 0.000040 0.000014 -0.074383 0.008101 -0.015403 -0.000000 0.000015 -0.000002 -0.038967 0.000000 -0.000000 -0.000003 -0.000000 0.000000 -0.022488 0.000000 -0.000000 0.712571 -0.008159 -1.310728 -0.003995 -0.010985 0.018096 -86.199433 49.487517 89.646588 -0.052819 -0.000008 -0.000074 2.573041 -0.739910 -0.463020 -0.032489 0.000042 -0.000035 -4.590281 -0.705066 0.717110 0.087143 -0.045243 0.001548 -3.053435 -8.922599 -0.474042 -0.000000 -0.394432 -0.000001 2.721474 20.176915 0.036774 0.000000 -0.466446 0.003058 1.109677 -7.281415 9.151572 0.000000 -0.079218 0.140851 0.000001 0.248282 -0.000001 -0.087143 -0.045243 0.001548 -9.149834 -11.968186 -1.912933 0.000000 -0.394432 -0.000001 8.673354 23.670222 -18.747276 -0.000000 -0.466446 0.003058 2.817620 -7.277221 22.273886 -0.000000 -0.079218 0.140851 -0.000001 0.248283 -0.000001 
-0.009431 1.053635 -0.018772 -2.000416 7.769990 15.530856 -0.000000 0.059888 0.006665 -1.244342 7.679818 1.650185 -0.000000 0.125681 -0.015911 -0.940131 0.721002 -0.422617 0.000000 0.122768 -0.001652 -0.000048 -12.397776 -0.000111 0.000000 0.155865 0.008735 -0.868753 18.386915 0.317439 -0.000000 0.095969 -0.000410 0.062818 5.574899 -0.129886 0.015267 0.059218 0.021494 -1.701125 3.586993 21.747934 -0.015267 0.059218 0.021494 1.701130 3.587003 -21.747923 0.025383 0.124268 0.007699 18.641502 -2.507832 15.780566 0.136062 0.000000 0.000000 0.495173 -0.233781 -32.694456 0.225446 -0.000000 0.000000 -5.923249 -18.678810 -14.943773 0.256325 0.000003 0.000015 -1.239509 39.037526 4.027231 0.074229 0.008101 0.022282 -0.012964 0.667618 1.112104 0.037712 -0.000000 -0.000001 -1.679197 1.282861 0.674522 0.023218 0.000022 0.000021 -0.334984 1.286453 -0.711000 0.069261 0.008101 -0.033073 0.000009 -0.000043 0.000002 0.035643 0.000000 -0.000000 0.000002 0.000001 -0.000001 0.020542 0.000000 -0.000000 0.890206 -0.008563 -1.101172 0.075240 0.008101 0.002320 0.000003 -0.000009 -0.000006 0.042007 -0.000000 -0.000000 0.000002 0.000039 -0.000013 0.025915 -0.000000 -0.000000 0.000004 0.000038 -0.000012 0.074383 0.008101 -0.015403 0.000003 0.000012 0.000005 0.038967 -0.000000 0.000000 0.000002 0.000001 -0.000000 0.022488 0.000000 -0.000000 -0.712572 -0.008160 1.310731 0.003995 -0.010985 0.018096 86.199494 49.487521 -89.646574 0.052819 -0.000008 -0.000074 -2.573032 -0.739914 0.463024 0.032489 0.000042 -0.000035 4.590288 -0.705066 -0.717111 -0.025383 0.124268 0.007699 11.411014 -2.472713 -15.968081 -0.136062 0.000000 0.000000 -10.310814 9.987824 17.371905 -0.225446 -0.000000 -0.000000 185.077759 -118.909277 190.468773 -0.256325 0.000003 0.000015 12.859585 54.461852 -21.647605 -0.074229 0.008101 0.022282 0.012969 0.667621 -1.112105 -0.037712 -0.000000 -0.000001 1.679194 1.282861 -0.674522 -0.023218 0.000022 0.000021 0.334983 1.286454 0.711000 -0.069261 0.008101 -0.033073 -0.000004 -0.000042 0.000001 -0.035643 0.000000 0.000000 -0.000003 0.000000 0.000001 -0.020542 -0.000000 -0.000000 -0.890204 -0.008561 1.101172 -0.075240 0.008101 0.002320 0.000001 -0.000006 0.000008 -0.042007 -0.000000 -0.000000 -0.000003 0.000037 0.000013 -0.025915 -0.000000 -0.000000 -0.000003 0.000039 0.000014 -0.074383 0.008101 -0.015403 0.000001 0.000016 -0.000002 -0.038967 -0.000000 -0.000000 -0.000003 -0.000001 0.000001 -0.022488 -0.000000 0.000000 0.712571 -0.008158 -1.310729 -0.003995 -0.010985 0.018096 -86.199433 49.487514 89.646581 -0.052819 -0.000008 -0.000074 2.573043 -0.739910 -0.463023 -0.032489 0.000042 -0.000035 -4.590280 -0.705066 0.717111 0.087143 -0.045243 0.001548 -3.434194 -8.794674 -0.525704 -0.000000 -0.394432 -0.000001 2.718547 20.210528 -0.033638 0.000000 -0.466446 0.003058 1.068513 -7.018725 9.158697 0.000000 -0.079218 0.140851 -0.000002 0.248280 0.000001 -0.087143 -0.045243 0.001548 -9.529549 -11.846930 -1.973818 0.000000 -0.394432 -0.000001 8.599521 23.248140 -18.604578 0.000000 -0.466446 0.003058 2.698893 -7.008829 22.200789 0.000000 -0.079218 0.140851 -0.000000 0.248285 -0.000001 
-0.009779 1.053666 -0.019977 -1.738369 7.848403 15.279196 -0.000000 0.059888 0.006665 -1.468184 7.597791 1.596427 -0.000000 0.125681 -0.015911 -1.168702 0.644760 -0.459958 0.000000 0.122768 -0.001652 -0.000046 -12.397780 -0.000103 0.000000 0.155865 0.008735 -0.828504 18.219390 0.317781 0.000000 0.095969 -0.000410 -0.326799 5.530209 -0.031721 0.015267 0.059218 0.021494 -1.701132 3.586997 21.747935 -0.015267 0.059218 0.021494 1.701130 3.587005 -21.747925 0.025383 0.124268 0.007699 18.687018 -2.420497 15.456037 0.136062 -0.000000 0.000000 0.451409 -0.421550 -32.679989 0.225446 -0.000000 0.000000 -5.773042 -14.237721 -14.524725 0.256325 0.000003 0.000015 -2.362354 35.665755 4.533248 0.074229 0.008101 0.022282 -0.012964 0.667622 1.112105 0.037712 -0.000000 -0.000001 -1.679195 1.282860 0.674521 0.023218 0.000022 0.000021 -0.334982 1.286453 -0.710998 0.069261 0.008101 -0.033073 0.000008 -0.000044 0.000000 0.035643 0.000000 -0.000000 0.000003 -0.000000 -0.000000 0.020542 -0.000000 -0.000000 0.890204 -0.008563 -1.101172 0.075240 0.008101 0.002320 0.000003 -0.000008 -0.000006 0.042007 -0.000000 0.000000 0.000004 0.000039 -0.000013 0.025915 0.000000 0.000000 0.000006 0.000039 -0.000012 0.074383 0.008101 -0.015403 0.000002 0.000015 0.000003 0.038967 0.000000 0.000000 0.000002 -0.000001 0.000000 0.022488 -0.000000 -0.000000 -0.712571 -0.008159 1.310730 0.003995 -0.010985 0.018096 86.199494 49.487521 -89.646581 0.052819 -0.000008 -0.000074 -2.573039 -0.739912 0.463022 0.032489 0.000042 -0.000035 4.590286 -0.705071 -0.717110 -0.025383 0.124268 0.007699 11.606516 -2.383463 -15.659674 -0.136062 -0.000000 -0.000000 -10.368942 9.944687 17.268048 -0.225446 0.000000 0.000000 184.478068 -124.862838 189.128485 -0.256325 0.000003 0.000015 12.738245 50.374844 -20.412008 -0.074229 0.008101 0.022282 0.012969 0.667621 -1.112107 -0.037712 -0.000000 -0.000001 1.679195 1.282863 -0.674524 -0.023218 0.000022 0.000021 0.334983 1.286453 0.711001 -0.069261 0.008101 -0.033073 -0.000006 -0.000042 -0.000002 -0.035643 0.000000 -0.000000 -0.000003 -0.000002 0.000001 -0.020542 -0.000000 0.000000 -0.890204 -0.008563 1.101172 -0.075240 0.008101 0.002320 0.000000 -0.000007 0.000005 -0.042007 0.000000 -0.000000 -0.000004 0.000038 0.000013 -0.025915 -0.000000 0.000000 -0.000004 0.000038 0.000015 -0.074383 0.008101 -0.015403 -0.000000 0.000015 -0.000004 -0.038967 -0.000000 0.000000 -0.000003 0.000000 0.000001 -0.022488 -0.000000 -0.000000 0.712571 -0.008160 -1.310729 -0.003995 -0.010985 0.018096 -86.199433 49.487521 89.646581 -0.052819 -0.000008 -0.000074 2.573043 -0.739910 -0.463021 -0.032489 0.000042 -0.000035 -4.590282 -0.705065 0.717110 0.087143 -0.045243 0.001548 -3.785072 -8.802891 -0.580093 -0.000000 -0.394432 -0.000001 2.847122 20.291802 -0.837772 0.000000 -0.466446 0.003058 1.109835 -6.680815 10.003883 0.000000 -0.079218 0.140851 -0.000002 0.248287 -0.000001 -0.087143 -0.045243 0.001548 -9.793238 -11.851294 -2.030191 0.000000 -0.394432 -0.000001 8.476085 22.862682 -18.297614 -0.000000 -0.466446 0.003058 2.553374 -6.642750 22.221397 -0.000000 -0.079218 0.140851 -0.000000 0.248283 0.000000 
